<?xml version="1.0" encoding="utf-8"?>
<!-- Generator: Adobe Illustrator 23.0.4, SVG Export Plug-In . SVG Version: 6.00 Build 0)  -->
<svg version="1.1" id="Layer_1" xmlns="http://www.w3.org/2000/svg" xmlns:xlink="http://www.w3.org/1999/xlink" x="0px" y="0px"
	 viewBox="0 0 453.5 255.1" style="enable-background:new 0 0 453.5 255.1;" xml:space="preserve">
<style type="text/css">
	.st0{fill-rule:evenodd;clip-rule:evenodd;fill:#FEFEFE;}
	.st1{fill:none;stroke:#231F20;stroke-linecap:round;stroke-linejoin:round;}
	.st2{fill-rule:evenodd;clip-rule:evenodd;fill:#FFFFFF;stroke:#020303;}
	.st3{fill-rule:evenodd;clip-rule:evenodd;fill:#FFFFFF;}
</style>
<title>Page 1</title>
<desc>Created with Sketch.</desc>
<g>
	<g id="Artboard-Copy-6" transform="translate(-85.000000, -1399.000000)">
		<g id="Page-1" transform="translate(86.000000, 1399.000000)">
			<g id="Group-28" transform="translate(322.924779, 30.473684)">
				<polygon id="Fill-1" class="st0" points="102.4,128.5 52.9,99.5 3.1,128.5 52.6,157.4 				"/>
				<polygon id="Stroke-3" class="st1" points="102.4,128.5 52.9,99.5 3.1,128.5 52.6,157.4 				"/>
				<polygon id="Fill-6" class="st0" points="39.9,36.3 -9.9,65.3 3,128.5 52.8,99.5 				"/>
				<polygon id="Stroke-8" class="st1" points="39.9,36.3 -9.9,65.3 3,128.5 52.8,99.5 				"/>
				<polygon id="Fill-11" class="st0" points="65.7,36.7 115.4,65.7 102.5,128.9 52.8,99.9 				"/>
				<polygon id="Stroke-13" class="st1" points="65.7,36.7 115.4,65.7 102.5,128.9 52.8,99.9 				"/>
				<polygon id="Fill-16" class="st0" points="102.4,128.3 115,80.2 65.3,109.2 52.7,157.3 				"/>
				<polygon id="Stroke-18" class="st1" points="102.4,128.3 115,80.2 65.3,109.2 52.7,157.3 				"/>
				<polygon id="Fill-21" class="st0" points="2.8,128.3 -9.8,80.2 40,109.2 52.7,157.3 				"/>
				<polygon id="Stroke-23" class="st1" points="2.8,128.3 -9.8,80.2 40,109.2 52.7,157.3 				"/>
			</g>
			<g id="Group-4">
				<polygon id="Stroke-26" class="st2" points="48.9,109.6 13.2,73.8 48.9,38 84.8,73.8 				"/>
				<polygon id="Stroke-29" class="st2" points="84.8,145.5 48.9,109.6 84.8,73.8 120.6,109.6 				"/>
				<polygon id="Stroke-30" class="st2" points="120.6,109.6 84.8,73.8 120.6,38 156.4,73.8 				"/>
				<polygon id="Stroke-32" class="st2" points="120.6,181.3 84.8,145.5 120.6,109.6 156.4,145.5 				"/>
				<polygon id="Stroke-33" class="st2" points="84.8,217.1 48.9,181.3 84.8,145.5 120.6,181.3 				"/>
				<polygon id="Stroke-35" class="st2" points="156.4,217.1 120.6,181.3 156.4,145.5 192.3,181.3 				"/>
			</g>
			<path id="Combined-Shape" class="st3" d="M254.2,134.3v9.3l18.9-16l-18.9-16v9.3h-30v13.4h30V134.3z"/>
		</g>
	</g>
</g>
</svg>
