<?xml version="1.0" encoding="utf-8"?>
<!-- Generator: Adobe Illustrator 23.0.4, SVG Export Plug-In . SVG Version: 6.00 Build 0)  -->
<svg version="1.1" id="Layer_1" xmlns="http://www.w3.org/2000/svg" xmlns:xlink="http://www.w3.org/1999/xlink" x="0px" y="0px"
	 viewBox="0 0 453.5 255.1" style="enable-background:new 0 0 453.5 255.1;" xml:space="preserve">
<style type="text/css">
	.st0{fill:none;}
	.st1{fill:none;stroke:#FFFFFF;}
	.st2{fill:none;stroke:#FFFFFF;stroke-linecap:round;stroke-linejoin:round;}
	.st3{fill:none;stroke:#FFFFFF;stroke-linejoin:round;}
	.st4{fill:none;stroke:#FFFFFF;stroke-linecap:round;stroke-linejoin:round;stroke-dasharray:11.594,11.594;}
</style>
<title>Page 1</title>
<desc>Created with Sketch.</desc>
<g>
	<g id="Artboard-Copy-6" transform="translate(-83.000000, -509.000000)">
		<g id="Page-1" transform="translate(83.000000, 510.000000)">
			<polygon id="Fill-1" class="st0" points="386.7,53.3 386.7,192 438.9,216 438.9,29.4 			"/>
			<g id="Group-28">
				<polygon id="Stroke-2" class="st1" points="438.7,216.2 387.6,192.2 387.6,53.3 438.7,29.4 				"/>
				<path id="Stroke-4" class="st2" d="M68.4,145.4c-7.2-3.2-12.2-10.4-12.2-18.7c0-8.4,5-15.6,12.2-18.7"/>
				<path id="Stroke-6" class="st2" d="M198.1,126.7c0,40.5-10.9,73.3-24.3,73.3c-13.4,0-24.3-32.8-24.3-73.3s10.9-73.3,24.3-73.3
					C187.2,53.3,198.1,86.2,198.1,126.7z"/>
				<path id="Stroke-8" class="st2" d="M318.8,126.7c0,55.7-5.8,100.8-12.9,100.8c-7.1,0-12.9-45.1-12.9-100.8S298.9,25.9,306,25.9
					C313.1,25.9,318.8,71,318.8,126.7z"/>
				<path id="Stroke-10" class="st2" d="M263,81.7h-38.6c3.8,13.6,5.9,28.8,5.9,44.9c0,16.1-2.1,31.4-5.9,44.9H263
					c-3.8-13.6-5.9-28.8-5.9-44.9C257.1,110.6,259.2,95.3,263,81.7z"/>
				<polyline id="Stroke-12" class="st2" points="68.1,160.9 13.7,126.7 68.1,92.5 				"/>
				<path id="Stroke-14" class="st3" d="M62.2,95.2c4.9,5.2,8.4,17.3,8.4,31.5c0,13.9-3.3,25.8-8.1,31.2"/>
				<path id="Stroke-16" class="st2" d="M70.6,126.7l9.7-1.8"/>
				<polyline id="Stroke-18" class="st4" points="99.1,121.4 149.5,112 197.3,108.9 229.6,110.3 258.5,104.6 294,89.1 317.6,83.4 
					389.7,83.4 				"/>
				<path id="Stroke-20" class="st2" d="M399.3,83.4h9.9"/>
				<path id="Stroke-22" class="st2" d="M70.6,126.7l9.7,1.8"/>
				<polyline id="Stroke-24" class="st4" points="99.1,132 149.5,141.4 197.3,144.5 229.6,143.1 258.5,148.8 294,164.2 317.6,170 
					389.7,170 				"/>
				<path id="Stroke-26" class="st2" d="M399.3,170h9.9"/>
			</g>
		</g>
	</g>
</g>
</svg>
